<svg id="logo-svg" xmlns="http://www.w3.org/2000/svg" viewBox="0 0 179.83 56.4"><defs><style>.cls-1{isolation:isolate;}.cls-2{fill:#d31245;}.cls-3{stroke:#000;stroke-miterlimit:10;}</style></defs><g class="cls-1"><g class="cls-1"><path class="cls-2" d="M1.38,54.82c-.86-.5-.92-.79-.92-2.73,0-3.6.25-6.48.31-7.63.06-.79.18-1.15.49-1.15s.42.22.42.79a14.29,14.29,0,0,0,.19,2.66c.91,5.33,4.94,7.34,9,7.34,5.86,0,8.73-5,8.73-9.57,0-5-1.77-7.84-7-13L9.86,28.92C3.39,22.66,1.93,18.2,1.93,13.31,1.93,5.61,6.81.36,14.56.36a20.26,20.26,0,0,1,5.68.72,8.48,8.48,0,0,0,2.14.36c.49,0,.61.14.61.5s-.24,2.74-.24,7.63c0,1.15-.13,1.65-.43,1.65s-.43-.36-.49-.93A14.76,14.76,0,0,0,21,6.69c-.37-.79-2-3.81-7.64-3.81C9.19,2.88,5.9,6,5.9,11.22c0,4.1,1.58,6.69,7.44,12.09l1.71,1.58C22.26,31.58,24,36,24,41.8c0,3-1,8.42-5.19,11.94a14.32,14.32,0,0,1-9.22,3A16.13,16.13,0,0,1,1.38,54.82Z" transform="translate(-0.46 -0.36)"/><path class="cls-3" d="M46.73,27.72c2.1-2.09,11.33-12.07,15.47-16.46s4.34-5,4.34-5.86a1.43,1.43,0,0,0-.88-1.32c-.48-.21-.61-.35-.61-.63s.41-.42,1-.42c2,0,1.76.21,4.07.21,2.1,0,6.1-.21,7.19-.21s1.15.21,1.15.49-.13.42-.74.49a12,12,0,0,0-3.46.84c-1.7.69-3,1.53-7.06,5.57-6,5.93-13.71,13.81-15.47,15.83C56,31.07,68.37,44,71.56,47c5.57,5.37,7.94,6.91,11.2,7.53a9,9,0,0,0,2,.21c.54,0,1,.14,1,.49s-.28.49-1,.49h-5c-5.91,0-7.47-.77-10.66-3.35-4.07-3.27-16.28-16.73-22.25-24v7.18c0,6.69,0,12.2.34,15.13.2,2,.61,3.56,2.64,3.84.95.13,2.31.27,2.72.27.61,0,.81.28.81.49s-.27.49-1,.49c-3.73,0-8-.21-8.34-.21s-4.35.21-6.38.21c-.75,0-1.09-.07-1.09-.49,0-.21.14-.49.75-.49a9,9,0,0,0,1.76-.21c1.36-.27,1.77-1.88,2-3.9.34-2.93.34-8.44.34-15.13V23.26c0-10.88,0-12.84-.14-15.07s-.81-3.55-2.3-3.9A11.33,11.33,0,0,0,36.41,4c-.54,0-.74-.14-.74-.42S36,3,36.75,3c2.24,0,6.79.21,7.13.21S48.49,3,50.53,3c.74,0,1.08.14,1.08.49s-.13.42-.74.49l-1.5.14c-1.83.21-2.37,1.6-2.51,4-.13,2.23-.13,4.19-.13,15.07Z" transform="translate(-0.46 -0.36)"/><path class="cls-3" d="M92.53,28.07c0-9.21,0-10.88-.14-12.76s-.54-2.93-2-3.21c-.67-.14-1.15-.14-1.56-.21s-.74-.21-.74-.49.27-.49,1-.49c2.11,0,6,.21,6.18.21s4.21-.21,6.11-.21c.68,0,1,.14,1,.49s-.2.42-.74.49-.75.07-1.22.14c-2,.28-2.18,1.32-2.31,3.35-.14,1.88-.07,3.48-.07,12.69V38.53c0,5.37-.07,10.25.27,12.76.27,2,.55,2.79,2.31,3.21a16,16,0,0,0,2.58.27c.61.07.75.21.75.49s-.28.49-1,.49c-3.46,0-7.39-.21-7.73-.21s-4.21.21-6.11.21c-.61,0-1.08-.14-1.08-.49s.27-.49.88-.49a8,8,0,0,0,1.63-.21c1.15-.27,1.35-1.67,1.56-3.34a126.9,126.9,0,0,0,.34-12.69Z" transform="translate(-0.46 -0.36)"/><path class="cls-3" d="M171.17,46.76c.27,2.51.75,6.41,3.67,7.39a13.37,13.37,0,0,0,4.2.62c.34,0,.75.07.75.42s-.2.56-1,.56c-1.49,0-9.23-.21-11.74-.42-1.56-.14-1.9-.35-1.9-.7s.14-.34.48-.48.4-1.26.27-2.51l-3.26-36.4L145.79,51.92c-1.42,3.06-1.62,3.69-2.24,3.69s-.81-.7-2.1-3.21c-1.76-3.41-7.6-15.48-7.94-16.17-.61-1.26-8.41-18.48-9.16-20.37l-2.78,32.85c-.07,1.11-.14,2.09-.14,3.27,0,1.75.82,2.31,1.84,2.52a10.2,10.2,0,0,0,2.44.27c.41,0,.68.14.68.35,0,.49-.34.63-1,.63-2.51,0-6-.21-6.52-.21s-3.86.21-5.7.21c-.67,0-1.15-.07-1.15-.56,0-.28.34-.42.68-.42a8.52,8.52,0,0,0,2-.21c2.23-.41,2.37-2.92,2.71-5.78l4.89-45.33c.06-.77.33-1.39.74-1.39s.68.28,1,1L144.84,47,164.79,3.17c.27-.63.55-1.11,1-1.11s.68.55.81,1.88Z" transform="translate(-0.46 -0.36)"/></g></g></svg>